<?xml version="1.0" encoding="UTF-8" standalone="no"?>
<svg width="514px" height="136px" viewBox="0 0 514 136" version="1.1" xmlns="http://www.w3.org/2000/svg" xmlns:xlink="http://www.w3.org/1999/xlink" xmlns:sketch="http://www.bohemiancoding.com/sketch/ns">
    <!-- Generator: Sketch 3.4.3 (16044) - http://www.bohemiancoding.com/sketch -->
    <title>logo</title>
    <desc>Created with Sketch.</desc>
    <defs></defs>
    <g id="Page-1" stroke="none" stroke-width="1" fill="none" fill-rule="evenodd" sketch:type="MSPage">
        <g id="logo" sketch:type="MSArtboardGroup" transform="translate(-23.000000, -20.000000)">
            <g sketch:type="MSLayerGroup" transform="translate(23.000000, 20.000000)">
                <rect id="Rectangle-1" stroke="#000000" stroke-width="4" sketch:type="MSShapeGroup" x="0" y="0" width="514" height="136"></rect>
                <path d="M478,90 L0,90 L0,94 L478,94 L478,134 L482,134 L482,4 L478,4 L478,90 Z M208,4 L212,4 L212,90 L208,90 L208,4 Z" id="dividers" fill="#000000" sketch:type="MSShapeGroup"></path>
                <path d="M41.8360006,116.202 C41.8360006,116.167333 41.8186675,116.401331 41.7840006,116.904 C41.7146669,117.909338 41.6800006,118.879995 41.6800006,119.816 C41.6800006,119.920001 41.6973338,120.132332 41.7320006,120.453 C41.7666675,120.773668 41.7840006,121.159331 41.7840006,121.61 L41.7840006,121.844 C41.7840006,122.069334 41.714668,122.182 41.5760006,122.182 C41.4373333,122.182 41.3160011,122.052001 41.2120006,121.792 C40.9693327,121.219997 40.7266685,120.847334 40.4840006,120.674 C39.2359944,121.766005 37.736676,122.312 35.9860006,122.312 C33.4379879,122.312 31.3276757,121.423676 29.6550006,119.647 C27.9823256,117.870324 27.1460006,115.630014 27.1460006,112.926 C27.1460006,110.204653 27.912993,107.981675 29.4470006,106.257 C30.9810083,104.532325 32.9613218,103.67 35.3880006,103.67 C36.272005,103.67 36.9783313,103.743666 37.5070006,103.891 C38.0356699,104.038334 38.6899967,104.337331 39.4700006,104.788 C39.8513359,105.013334 40.137333,105.126 40.3280006,105.126 C40.4840014,105.126 40.6313333,104.987335 40.7700006,104.71 C40.9953351,104.224664 41.1773333,103.982 41.3160006,103.982 C41.454668,103.982 41.5240006,104.051333 41.5240006,104.19 C41.5240006,104.259334 41.5066675,104.371999 41.4720006,104.528 C41.281333,105.360004 41.1860006,106.919989 41.1860006,109.208 C41.1860006,109.537335 41.1600009,109.728 41.1080006,109.78 C41.0560004,109.832 40.9866677,109.858 40.9000006,109.858 C40.7266664,109.858 40.6140009,109.693335 40.5620006,109.364 C40.3366662,107.977326 40.0160027,106.946003 39.6000006,106.27 C38.750663,104.883326 37.4160097,104.19 35.5960006,104.19 C34.1919936,104.19 33.0826714,104.657995 32.2680006,105.594 C30.7946599,107.275342 30.0580006,109.73665 30.0580006,112.978 C30.0580006,115.872681 30.6646612,118.117325 31.8780006,119.712 C32.9353392,121.098674 34.3393252,121.792 36.0900006,121.792 C36.9913385,121.792 37.8146636,121.571002 38.5600006,121.129 C39.3053377,120.686998 39.877332,120.08467 40.2760006,119.322 C40.7266695,118.437996 41.047333,117.476005 41.2380006,116.436 C41.3073343,116.019998 41.4199998,115.812 41.5760006,115.812 C41.7493348,115.812 41.8360006,115.941999 41.8360006,116.202 L41.8360006,116.202 Z M64.4440006,113.082 C64.4440006,115.66468 63.6683417,117.848658 62.1170006,119.634 C60.5656595,121.419342 58.6633452,122.312 56.4100006,122.312 C54.0179886,122.312 52.0073421,121.406342 50.3780006,119.595 C48.7486591,117.783658 47.9340006,115.552013 47.9340006,112.9 C47.9340006,110.195986 48.7183261,107.981675 50.2870006,106.257 C51.8556751,104.532325 53.8619884,103.67 56.3060006,103.67 C58.6113454,103.67 60.5439928,104.571324 62.1040006,106.374 C63.6640084,108.176676 64.4440006,110.412653 64.4440006,113.082 L64.4440006,113.082 Z M61.5320006,113.212 C61.5320006,110.039984 60.8820071,107.570009 59.5820006,105.802 C58.7673298,104.692661 57.6320079,104.138 56.1760006,104.138 C54.789327,104.138 53.7146711,104.562662 52.9520006,105.412 C51.5479936,106.972008 50.8460006,109.511316 50.8460006,113.03 C50.8460006,115.820681 51.3356623,117.987326 52.3150006,119.53 C53.2943388,121.072674 54.6679917,121.844 56.4360006,121.844 C58.0826755,121.844 59.3219964,121.116007 60.1540006,119.66 C61.0726718,118.047992 61.5320006,115.89868 61.5320006,113.212 L61.5320006,113.212 Z M86.0380005,104.19 C86.0380005,104.363334 85.821336,104.441333 85.3880005,104.424 L84.8160005,104.398 L84.3480005,104.398 C84.0706658,104.398 83.9060008,104.445666 83.8540005,104.541 C83.8020003,104.636334 83.7760005,104.926664 83.7760005,105.412 L83.7760005,120.388 C83.7760005,121.306671 83.7673339,121.843999 83.7500005,122 C83.7326671,122.156001 83.6806676,122.234 83.5940005,122.234 C83.49,122.234 83.3686679,122.138668 83.2300005,121.948 L79.9020005,117.086 C77.9779909,114.260653 75.6380143,110.733354 72.8820005,106.504 L72.9080005,121.012 C72.9253339,121.237334 73.0553326,121.380333 73.2980005,121.441 C73.5406684,121.501667 74.1213293,121.540667 75.0400005,121.558 C75.265335,121.558 75.3780005,121.627333 75.3780005,121.766 C75.3780005,121.939334 75.1526694,122.026 74.7020005,122.026 C74.5459997,122.026 74.0520047,122 73.2200005,121.948 C72.9426658,121.930667 72.6740018,121.922 72.4140005,121.922 C72.4313339,121.922 72.2796688,121.939333 71.9590005,121.974 C71.6383322,122.008667 71.1486705,122.026 70.4900005,122.026 L70.2300005,122.026 C69.8313319,122.026 69.6320005,121.948001 69.6320005,121.792 C69.6320005,121.635999 69.8053321,121.558 70.1520005,121.558 C71.1746723,121.540667 71.768333,121.475667 71.9330005,121.363 C72.097668,121.250333 72.1800005,120.882003 72.1800005,120.258 L72.1800005,107.44 C72.1800005,106.001326 71.8853368,105.100002 71.2960005,104.736 C71.0186658,104.562666 70.5246707,104.476 69.8140005,104.476 C69.3633316,104.476 69.1380005,104.389334 69.1380005,104.216 C69.1380005,104.059999 69.2679992,103.982 69.5280005,103.982 C69.8746689,103.982 70.3166645,103.990667 70.8540005,104.008 C71.3913365,104.025333 71.6773337,104.034 71.7120005,104.034 C71.7640008,104.034 72.006665,104.025333 72.4400005,104.008 C73.0120034,104.008 73.5666645,103.999333 74.1040005,103.982 L83.0740005,117.32 L83.0740005,105.75 C83.0740005,105.212664 83.0653339,104.887667 83.0480005,104.775 C83.0306671,104.662333 82.9613345,104.575667 82.8400005,104.515 C82.7186666,104.454333 82.3026707,104.424 81.5920005,104.424 C80.9679974,104.424 80.6560005,104.346001 80.6560005,104.19 C80.6560005,104.016666 80.8639984,103.93 81.2800005,103.93 L82.1900005,103.93 L82.9180005,103.93 C83.1953352,103.947333 83.3600003,103.956 83.4120005,103.956 C83.4293339,103.956 83.5853324,103.947333 83.8800005,103.93 L84.6600005,103.93 L85.4660005,103.93 C85.8473358,103.93 86.0380005,104.016666 86.0380005,104.19 L86.0380005,104.19 Z M107.736,113.004 C107.736,116.054682 106.670011,118.429325 104.538,120.128 C102.977993,121.376006 100.889347,122 98.2720005,122 C98.2026668,122 97.8950032,121.991333 97.3490005,121.974 C96.8029977,121.956667 96.0100057,121.948 94.9700005,121.948 L93.6700005,121.948 L91.6160005,121.974 C91.4946665,121.991333 91.3646678,122 91.2260005,122 C90.8966655,122 90.7320005,121.913334 90.7320005,121.74 C90.7320005,121.583999 91.009331,121.506 91.5640005,121.506 C92.2746707,121.506 92.7166663,121.376001 92.8900005,121.116 C92.9593341,120.994666 92.9940005,120.665336 92.9940005,120.128 L92.9940005,106.114 C92.9940005,105.264662 92.9290011,104.770667 92.7990005,104.632 C92.6689998,104.493333 92.2226709,104.424 91.4600005,104.424 C91.0613318,104.424 90.8620005,104.328668 90.8620005,104.138 C90.8620005,103.999333 91.0093323,103.93 91.3040005,103.93 C91.286667,103.93 91.4773318,103.938667 91.8760005,103.956 C92.2746691,103.973333 92.6646652,103.982 93.0460005,103.982 L95.8280005,103.982 C98.9480161,103.982 101.157994,104.198665 102.458,104.632 C104.035342,105.152003 105.309329,106.178992 106.28,107.713 C107.250672,109.247008 107.736,111.010657 107.736,113.004 L107.736,113.004 Z M104.824,112.9 C104.824,110.022652 104.260673,107.91234 103.134,106.569 C102.007328,105.22566 100.248012,104.554 97.8560005,104.554 C96.6946613,104.554 95.9926683,104.675332 95.7500005,104.918 C95.6459999,105.039334 95.5940005,105.45533 95.5940005,106.166 L95.5940005,119.998 C95.5940005,120.483336 95.6070003,120.777999 95.6330005,120.882 C95.6590006,120.986001 95.7326665,121.072666 95.8540005,121.142 C96.2700025,121.350001 97.1453271,121.454 98.4800005,121.454 C100.35201,121.454 101.859995,120.79534 103.004,119.478 C104.21734,118.091326 104.824,115.898682 104.824,112.9 L104.824,112.9 Z M130.266,113.082 C130.266,115.66468 129.490341,117.848658 127.939,119.634 C126.387659,121.419342 124.485345,122.312 122.232,122.312 C119.839988,122.312 117.829342,121.406342 116.2,119.595 C114.570659,117.783658 113.756,115.552013 113.756,112.9 C113.756,110.195986 114.540326,107.981675 116.109,106.257 C117.677675,104.532325 119.683988,103.67 122.128,103.67 C124.433345,103.67 126.365993,104.571324 127.926,106.374 C129.486008,108.176676 130.266,110.412653 130.266,113.082 L130.266,113.082 Z M127.354,113.212 C127.354,110.039984 126.704007,107.570009 125.404,105.802 C124.58933,104.692661 123.454008,104.138 121.998,104.138 C120.611327,104.138 119.536671,104.562662 118.774,105.412 C117.369993,106.972008 116.668,109.511316 116.668,113.03 C116.668,115.820681 117.157662,117.987326 118.137,119.53 C119.116339,121.072674 120.489992,121.844 122.258,121.844 C123.904675,121.844 125.143996,121.116007 125.976,119.66 C126.894672,118.047992 127.354,115.89868 127.354,113.212 L127.354,113.212 Z M154.59,121.792 C154.59,121.965334 154.408002,122.052 154.044,122.052 L153.758,122.052 C153.515332,122.052 153.073337,122.043333 152.432,122.026 C151.790664,122.008667 151.296669,122 150.95,122 C150.429998,122 149.823337,122.008667 149.13,122.026 L147.726,122.026 L147.544,122.026 C147.179999,122.026 146.998,121.948001 146.998,121.792 C146.998,121.618666 147.249331,121.532 147.752,121.532 C148.636005,121.532 149.173333,121.436668 149.364,121.246 C149.450667,121.159333 149.494,120.578672 149.494,119.504 L149.494,106.036 C149.494,106.053333 149.398668,106.356664 149.208,106.946 C148.514664,109.043344 147.50934,112.197979 146.192,116.41 L144.97,120.544 C144.727332,121.358671 144.554001,121.766 144.45,121.766 C144.328666,121.766 144.198668,121.558002 144.06,121.142 C143.557331,119.564659 142.136012,115.630031 139.796,109.338 L138.756,106.556 C138.773334,106.885335 138.782,107.335997 138.782,107.908 L138.782,116.358 C138.782,119.530016 138.808,121.133333 138.86,121.168 C138.981334,121.393334 139.39733,121.506 140.108,121.506 C140.680003,121.506 140.966,121.583999 140.966,121.74 C140.966,121.913334 140.784002,122 140.42,122 C140.194666,122 139.986668,121.991333 139.796,121.974 C139.553332,121.956667 139.336668,121.948 139.146,121.948 L136.156,122.026 C135.843999,122.026 135.688,121.948001 135.688,121.792 C135.688,121.618666 136.181995,121.523333 137.17,121.506 C137.586002,121.506 137.828667,121.436667 137.898,121.298 C137.967334,121.159333 138.002,120.70867 138.002,119.946 L138.002,107.492 C138.002,106.053326 137.984667,105.273334 137.95,105.152 C137.880667,104.909332 137.733335,104.744667 137.508,104.658 C137.282666,104.571333 136.797337,104.502 136.052,104.45 C135.774666,104.432667 135.636,104.354667 135.636,104.216 C135.636,104.025332 135.887331,103.93 136.39,103.93 C136.459334,103.93 136.606666,103.938667 136.832,103.956 L138.184,103.956 C139.206672,103.956 139.925998,103.947333 140.342,103.93 C140.428667,104.155334 140.939996,105.515988 141.876,108.012 C142.274669,109.052005 143.392658,112.085308 145.23,117.112 C145.559335,115.985328 145.897332,114.876005 146.244,113.784 L149,105.178 C149.156001,104.675331 149.294666,104.259335 149.416,103.93 L153.316,103.904 C153.888003,103.904 154.217333,103.93 154.304,103.982 C154.390667,104.034 154.434,104.111999 154.434,104.216 C154.434,104.389334 154.286668,104.476 153.992,104.476 C153.506665,104.476 153.177335,104.493333 153.004,104.528 C152.587998,104.597334 152.302001,104.735999 152.146,104.944 C152.059333,105.065334 152.016,106.079324 152.016,107.986 L152.016,120.076 C152.016,120.769337 152.085333,121.176666 152.224,121.298 C152.449335,121.454001 153.012663,121.532 153.914,121.532 L154.07,121.532 C154.416669,121.532 154.59,121.618666 154.59,121.792 L154.59,121.792 Z M166.096,121.792 C166.096,121.930667 165.992001,122 165.784,122 L165.524,122 C165.42,121.948 164.241345,121.922 161.988,121.922 C161.554665,121.922 161.121336,121.939333 160.688,121.974 C160.462666,121.991333 160.116003,122 159.648,122 C159.422666,122 159.31,121.922001 159.31,121.766 C159.31,121.627333 159.535331,121.549333 159.986,121.532 C160.679337,121.514667 161.086666,121.432334 161.208,121.285 C161.329334,121.137666 161.39,120.639338 161.39,119.79 L161.39,106.114 C161.39,105.264662 161.346667,104.788001 161.26,104.684 C161.156,104.510666 160.679338,104.406667 159.83,104.372 C159.500665,104.354667 159.336,104.285334 159.336,104.164 C159.336,104.007999 159.439999,103.93 159.648,103.93 L163.158,103.982 C163.418002,103.982 163.920663,103.973333 164.666,103.956 L165.654,103.93 C165.931335,103.93 166.07,104.007999 166.07,104.164 C166.07,104.302667 165.688671,104.389333 164.926,104.424 C164.492665,104.441333 164.228334,104.519333 164.133,104.658 C164.037666,104.796667 163.99,105.160664 163.99,105.75 L163.99,119.634 C163.99,120.622005 164.033333,121.159333 164.12,121.246 C164.310668,121.436668 164.873996,121.549333 165.81,121.584 C166.000668,121.584 166.096,121.653333 166.096,121.792 L166.096,121.792 Z M187.274,104.19 C187.274,104.363334 187.057336,104.441333 186.624,104.424 L186.052,104.398 L185.584,104.398 C185.306666,104.398 185.142,104.445666 185.09,104.541 C185.038,104.636334 185.012,104.926664 185.012,105.412 L185.012,120.388 C185.012,121.306671 185.003334,121.843999 184.986,122 C184.968667,122.156001 184.916667,122.234 184.83,122.234 C184.726,122.234 184.604668,122.138668 184.466,121.948 L181.138,117.086 C179.213991,114.260653 176.874014,110.733354 174.118,106.504 L174.144,121.012 C174.161334,121.237334 174.291332,121.380333 174.534,121.441 C174.776668,121.501667 175.357329,121.540667 176.276,121.558 C176.501335,121.558 176.614,121.627333 176.614,121.766 C176.614,121.939334 176.388669,122.026 175.938,122.026 C175.781999,122.026 175.288004,122 174.456,121.948 C174.178666,121.930667 173.910002,121.922 173.65,121.922 C173.667334,121.922 173.515668,121.939333 173.195,121.974 C172.874332,122.008667 172.38467,122.026 171.726,122.026 L171.466,122.026 C171.067332,122.026 170.868,121.948001 170.868,121.792 C170.868,121.635999 171.041332,121.558 171.388,121.558 C172.410672,121.540667 173.004333,121.475667 173.169,121.363 C173.333668,121.250333 173.416,120.882003 173.416,120.258 L173.416,107.44 C173.416,106.001326 173.121337,105.100002 172.532,104.736 C172.254666,104.562666 171.76067,104.476 171.05,104.476 C170.599331,104.476 170.374,104.389334 170.374,104.216 C170.374,104.059999 170.503999,103.982 170.764,103.982 C171.110669,103.982 171.552664,103.990667 172.09,104.008 C172.627336,104.025333 172.913333,104.034 172.948,104.034 C173,104.034 173.242665,104.025333 173.676,104.008 C174.248003,104.008 174.802664,103.999333 175.34,103.982 L184.31,117.32 L184.31,105.75 C184.31,105.212664 184.301334,104.887667 184.284,104.775 C184.266667,104.662333 184.197334,104.575667 184.076,104.515 C183.954666,104.454333 183.53867,104.424 182.828,104.424 C182.203997,104.424 181.892,104.346001 181.892,104.19 C181.892,104.016666 182.099998,103.93 182.516,103.93 L183.426,103.93 L184.154,103.93 C184.431335,103.947333 184.596,103.956 184.648,103.956 C184.665334,103.956 184.821332,103.947333 185.116,103.93 L185.896,103.93 L186.702,103.93 C187.083335,103.93 187.274,104.016666 187.274,104.19 L187.274,104.19 Z M198.936,121.792 C198.936,121.930667 198.832001,122 198.624,122 L198.364,122 C198.26,121.948 197.081345,121.922 194.828,121.922 C194.394665,121.922 193.961336,121.939333 193.528,121.974 C193.302666,121.991333 192.956003,122 192.488,122 C192.262666,122 192.15,121.922001 192.15,121.766 C192.15,121.627333 192.375331,121.549333 192.826,121.532 C193.519337,121.514667 193.926666,121.432334 194.048,121.285 C194.169334,121.137666 194.23,120.639338 194.23,119.79 L194.23,106.114 C194.23,105.264662 194.186667,104.788001 194.1,104.684 C193.996,104.510666 193.519338,104.406667 192.67,104.372 C192.340665,104.354667 192.176,104.285334 192.176,104.164 C192.176,104.007999 192.279999,103.93 192.488,103.93 L195.998,103.982 C196.258001,103.982 196.760663,103.973333 197.506,103.956 L198.494,103.93 C198.771335,103.93 198.91,104.007999 198.91,104.164 C198.91,104.302667 198.528671,104.389333 197.766,104.424 C197.332665,104.441333 197.068334,104.519333 196.973,104.658 C196.877666,104.796667 196.83,105.160664 196.83,105.75 L196.83,119.634 C196.83,120.622005 196.873333,121.159333 196.96,121.246 C197.150668,121.436668 197.713995,121.549333 198.65,121.584 C198.840668,121.584 198.936,121.653333 198.936,121.792 L198.936,121.792 Z M220.504,104.19 C220.504,104.346001 220.348002,104.424 220.036,104.424 C219.984,104.424 219.810668,104.415333 219.516,104.398 C219.429333,104.380667 219.308001,104.372 219.152,104.372 C218.718665,104.372 218.458667,104.484666 218.372,104.71 C218.337333,104.831334 218.32,105.030665 218.32,105.308 L218.32,115.058 C218.32,117.588679 217.847672,119.430328 216.903,120.583 C215.958329,121.735672 214.437344,122.312 212.34,122.312 C209.826654,122.312 208.058672,121.60134 207.036,120.18 C206.359997,119.226662 206.022,117.658011 206.022,115.474 L205.996,105.048 C205.944,104.735998 205.736002,104.545334 205.372,104.476 C205.268,104.458667 204.947336,104.45 204.41,104.45 C204.115332,104.415333 203.968,104.328667 203.968,104.19 C203.968,104.033999 204.089332,103.956 204.332,103.956 L204.8,103.956 C204.886667,103.956 205.085999,103.964667 205.398,103.982 L206.152,103.982 L209.87,103.956 C209.956667,103.938667 210.060666,103.93 210.182,103.93 C210.476668,103.93 210.624,104.025332 210.624,104.216 C210.624,104.337334 210.572001,104.406667 210.468,104.424 C210.364,104.441333 210.017336,104.458667 209.428,104.476 C209.185332,104.476 209.020667,104.493333 208.934,104.528 C208.760666,104.597334 208.665334,104.718666 208.648,104.892 C208.630667,104.961334 208.622,105.455329 208.622,106.374 L208.622,115.682 C208.622,117.970011 208.985996,119.529996 209.714,120.362 C210.442004,121.194004 211.525326,121.61 212.964,121.61 C215.59868,121.61 217.089332,120.110682 217.436,117.112 C217.488,116.661331 217.514,114.754683 217.514,111.392 L217.514,109.91 L217.54,107.83 L217.514,106.036 L217.514,105.464 C217.531334,105.238666 217.54,105.143333 217.54,105.178 C217.54,104.796665 217.358002,104.562667 216.994,104.476 C216.872666,104.441333 216.517336,104.424 215.928,104.424 C215.581332,104.424 215.408,104.328668 215.408,104.138 C215.408,103.981999 215.529332,103.904 215.772,103.904 C215.910667,103.904 216.023333,103.912667 216.11,103.93 C216.318001,103.947333 217.071994,103.956 218.372,103.956 C218.562668,103.956 218.779332,103.947333 219.022,103.93 L219.516,103.93 L219.906,103.93 C220.304669,103.93 220.504,104.016666 220.504,104.19 L220.504,104.19 Z M243.97,121.792 C243.97,121.965334 243.788002,122.052 243.424,122.052 L243.138,122.052 C242.895332,122.052 242.453337,122.043333 241.812,122.026 C241.170664,122.008667 240.676668,122 240.33,122 C239.809997,122 239.203337,122.008667 238.51,122.026 L237.106,122.026 L236.924,122.026 C236.559998,122.026 236.378,121.948001 236.378,121.792 C236.378,121.618666 236.629331,121.532 237.132,121.532 C238.016004,121.532 238.553332,121.436668 238.744,121.246 C238.830667,121.159333 238.874,120.578672 238.874,119.504 L238.874,106.036 C238.874,106.053333 238.778668,106.356664 238.588,106.946 C237.894663,109.043344 236.88934,112.197979 235.572,116.41 L234.35,120.544 C234.107332,121.358671 233.934001,121.766 233.83,121.766 C233.708666,121.766 233.578667,121.558002 233.44,121.142 C232.937331,119.564659 231.516012,115.630031 229.176,109.338 L228.136,106.556 C228.153333,106.885335 228.162,107.335997 228.162,107.908 L228.162,116.358 C228.162,119.530016 228.188,121.133333 228.24,121.168 C228.361334,121.393334 228.77733,121.506 229.488,121.506 C230.060003,121.506 230.346,121.583999 230.346,121.74 C230.346,121.913334 230.164002,122 229.8,122 C229.574666,122 229.366668,121.991333 229.176,121.974 C228.933332,121.956667 228.716668,121.948 228.526,121.948 L225.536,122.026 C225.223998,122.026 225.068,121.948001 225.068,121.792 C225.068,121.618666 225.561995,121.523333 226.55,121.506 C226.966002,121.506 227.208666,121.436667 227.278,121.298 C227.347334,121.159333 227.382,120.70867 227.382,119.946 L227.382,107.492 C227.382,106.053326 227.364667,105.273334 227.33,105.152 C227.260666,104.909332 227.113335,104.744667 226.888,104.658 C226.662666,104.571333 226.177337,104.502 225.432,104.45 C225.154665,104.432667 225.016,104.354667 225.016,104.216 C225.016,104.025332 225.267331,103.93 225.77,103.93 C225.839334,103.93 225.986666,103.938667 226.212,103.956 L227.564,103.956 C228.586672,103.956 229.305998,103.947333 229.722,103.93 C229.808667,104.155334 230.319995,105.515988 231.256,108.012 C231.654669,109.052005 232.772658,112.085308 234.61,117.112 C234.939335,115.985328 235.277332,114.876005 235.624,113.784 L238.38,105.178 C238.536001,104.675331 238.674666,104.259335 238.796,103.93 L242.696,103.904 C243.268003,103.904 243.597333,103.93 243.684,103.982 C243.770667,104.034 243.814,104.111999 243.814,104.216 C243.814,104.389334 243.666668,104.476 243.372,104.476 C242.886664,104.476 242.557334,104.493333 242.384,104.528 C241.967998,104.597334 241.682001,104.735999 241.526,104.944 C241.439333,105.065334 241.396,106.079324 241.396,107.986 L241.396,120.076 C241.396,120.769337 241.465333,121.176666 241.604,121.298 C241.829335,121.454001 242.392662,121.532 243.294,121.532 L243.45,121.532 C243.796668,121.532 243.97,121.618666 243.97,121.792 L243.97,121.792 Z M273.456,121.818 C273.456,121.974001 273.326001,122.052 273.066,122.052 C272.892666,122.052 272.736667,122.043333 272.598,122.026 L269.296,121.974 L265.994,122.026 C265.872666,122.043333 265.742667,122.052 265.604,122.052 C265.257332,122.052 265.084,121.965334 265.084,121.792 C265.084,121.601332 265.317998,121.506 265.786,121.506 C267.311341,121.488667 268.074,121.332668 268.074,121.038 C268.074,121.020667 268.056667,120.951334 268.022,120.83 L267.814,120.128 L267.684,119.764 C267.527999,119.226664 267.14667,118.039343 266.54,116.202 L260.976,116.202 C259.935995,118.975347 259.416,120.569998 259.416,120.986 C259.416,121.228668 259.519999,121.376 259.728,121.428 C259.78,121.445333 260.213329,121.48 261.028,121.532 C261.530669,121.549333 261.782,121.635999 261.782,121.792 C261.782,121.965334 261.556669,122.052 261.106,122.052 C260.308663,122.052 259.381339,122.017334 258.324,121.948 C258.063999,121.930667 257.795335,121.922 257.518,121.922 C257.240665,121.922 256.972001,121.939333 256.712,121.974 C256.573333,121.991333 256.460667,122 256.374,122 C256.131332,122 256.01,121.922001 256.01,121.766 C256.01,121.609999 256.282997,121.523333 256.829,121.506 C257.375003,121.488667 257.769332,121.406334 258.012,121.259 C258.254668,121.111666 258.445333,120.830002 258.584,120.414 C260.820011,114.035301 262.639993,108.913353 264.044,105.048 C264.078667,104.839999 264.147999,104.606001 264.252,104.346 L264.382,103.878 C264.434,103.687332 264.503333,103.592 264.59,103.592 C264.642,103.592 264.685333,103.643999 264.72,103.748 C264.945334,104.424003 265.456663,105.836656 266.254,107.986 C266.878003,109.667342 268.429321,113.887966 270.908,120.648 C271.046667,121.029335 271.224332,121.271999 271.441,121.376 C271.657668,121.480001 272.103997,121.540667 272.78,121.558 C273.230669,121.575333 273.456,121.661999 273.456,121.818 L273.456,121.818 Z M266.384,115.604 C266.106665,114.823996 265.647336,113.532676 265.006,111.73 L263.758,108.168 C263.029996,110.074676 262.154672,112.553318 261.132,115.604 L266.384,115.604 Z M288.29,116.93 C288.29,118.420674 287.722339,119.690328 286.587,120.739 C285.451661,121.787672 284.086675,122.312 282.492,122.312 C281.555995,122.312 280.438006,122.026003 279.138,121.454 C278.791331,121.297999 278.531334,121.22 278.358,121.22 C278.149999,121.22 278.02,121.471331 277.968,121.974 C277.950666,122.234001 277.838001,122.364 277.63,122.364 C277.456666,122.364 277.37,122.260001 277.37,122.052 C277.37,121.913333 277.378666,121.809334 277.396,121.74 C277.534667,120.682661 277.604,119.703338 277.604,118.802 C277.604,118.628666 277.586667,118.143337 277.552,117.346 C277.534666,117.241999 277.526,117.103334 277.526,116.93 C277.526,116.669999 277.629999,116.54 277.838,116.54 C278.011334,116.54 278.132666,116.747998 278.202,117.164 C278.652669,120.249349 280.117321,121.792 282.596,121.792 C283.653339,121.792 284.47233,121.493003 285.053,120.895 C285.633669,120.296997 285.924,119.452005 285.924,118.36 C285.924,117.389328 285.642336,116.56167 285.079,115.877 C284.515664,115.19233 283.54934,114.512003 282.18,113.836 C280.533325,113.021329 279.389336,112.23267 278.748,111.47 C278.106663,110.70733 277.786,109.762672 277.786,108.636 C277.786,107.197326 278.249662,106.010005 279.177,105.074 C280.104338,104.137995 281.278659,103.67 282.7,103.67 C283.289336,103.67 284.103995,103.869331 285.144,104.268 C285.508002,104.406667 285.776666,104.476 285.95,104.476 C286.140668,104.476 286.266333,104.441334 286.327,104.372 C286.387667,104.302666 286.444,104.120668 286.496,103.826 C286.530667,103.652666 286.625999,103.566 286.782,103.566 C286.955334,103.566 287.042,103.669999 287.042,103.878 C287.042,104.016667 287.033333,104.120666 287.016,104.19 C286.964,104.606002 286.938,105.108664 286.938,105.698 C286.938,106.530004 286.981333,107.188664 287.068,107.674 L287.094,108.09 C287.111333,108.280668 287.033334,108.376 286.86,108.376 C286.669332,108.376 286.539334,108.176669 286.47,107.778 C286.279332,106.755328 285.82867,105.90167 285.118,105.217 C284.40733,104.53233 283.610004,104.19 282.726,104.19 C281.859329,104.19 281.170336,104.467331 280.659,105.022 C280.147664,105.576669 279.892,106.330662 279.892,107.284 C279.892,108.393339 280.264663,109.285997 281.01,109.962 C281.426002,110.343335 282.327326,110.880663 283.714,111.574 C285.343341,112.388671 286.51333,113.216329 287.224,114.057 C287.93467,114.897671 288.29,115.855328 288.29,116.93 L288.29,116.93 Z M305.048,116.93 C305.048,118.420674 304.480339,119.690328 303.345,120.739 C302.209661,121.787672 300.844674,122.312 299.25,122.312 C298.313995,122.312 297.196006,122.026003 295.896,121.454 C295.549331,121.297999 295.289334,121.22 295.116,121.22 C294.907999,121.22 294.778,121.471331 294.726,121.974 C294.708666,122.234001 294.596001,122.364 294.388,122.364 C294.214666,122.364 294.128,122.260001 294.128,122.052 C294.128,121.913333 294.136666,121.809334 294.154,121.74 C294.292667,120.682661 294.362,119.703338 294.362,118.802 C294.362,118.628666 294.344667,118.143337 294.31,117.346 C294.292666,117.241999 294.284,117.103334 294.284,116.93 C294.284,116.669999 294.387999,116.54 294.596,116.54 C294.769334,116.54 294.890666,116.747998 294.96,117.164 C295.410669,120.249349 296.875321,121.792 299.354,121.792 C300.411338,121.792 301.23033,121.493003 301.811,120.895 C302.391669,120.296997 302.682,119.452005 302.682,118.36 C302.682,117.389328 302.400336,116.56167 301.837,115.877 C301.273664,115.19233 300.30734,114.512003 298.938,113.836 C297.291325,113.021329 296.147336,112.23267 295.506,111.47 C294.864663,110.70733 294.544,109.762672 294.544,108.636 C294.544,107.197326 295.007662,106.010005 295.935,105.074 C296.862338,104.137995 298.036659,103.67 299.458,103.67 C300.047336,103.67 300.861995,103.869331 301.902,104.268 C302.266002,104.406667 302.534666,104.476 302.708,104.476 C302.898667,104.476 303.024333,104.441334 303.085,104.372 C303.145667,104.302666 303.202,104.120668 303.254,103.826 C303.288667,103.652666 303.383999,103.566 303.54,103.566 C303.713334,103.566 303.8,103.669999 303.8,103.878 C303.8,104.016667 303.791333,104.120666 303.774,104.19 C303.722,104.606002 303.696,105.108664 303.696,105.698 C303.696,106.530004 303.739333,107.188664 303.826,107.674 L303.852,108.09 C303.869333,108.280668 303.791334,108.376 303.618,108.376 C303.427332,108.376 303.297334,108.176669 303.228,107.778 C303.037332,106.755328 302.58667,105.90167 301.876,105.217 C301.16533,104.53233 300.368004,104.19 299.484,104.19 C298.617329,104.19 297.928336,104.467331 297.417,105.022 C296.905664,105.576669 296.65,106.330662 296.65,107.284 C296.65,108.393339 297.022663,109.285997 297.768,109.962 C298.184002,110.343335 299.085326,110.880663 300.472,111.574 C302.101341,112.388671 303.27133,113.216329 303.982,114.057 C304.69267,114.897671 305.048,115.855328 305.048,116.93 L305.048,116.93 Z M327.24,113.082 C327.24,115.66468 326.464341,117.848658 324.913,119.634 C323.361659,121.419342 321.459344,122.312 319.206,122.312 C316.813988,122.312 314.803341,121.406342 313.174,119.595 C311.544658,117.783658 310.73,115.552013 310.73,112.9 C310.73,110.195986 311.514325,107.981675 313.083,106.257 C314.651674,104.532325 316.657988,103.67 319.102,103.67 C321.407345,103.67 323.339992,104.571324 324.9,106.374 C326.460008,108.176676 327.24,110.412653 327.24,113.082 L327.24,113.082 Z M324.328,113.212 C324.328,110.039984 323.678006,107.570009 322.378,105.802 C321.563329,104.692661 320.428007,104.138 318.972,104.138 C317.585326,104.138 316.51067,104.562662 315.748,105.412 C314.343993,106.972008 313.642,109.511316 313.642,113.03 C313.642,115.820681 314.131662,117.987326 315.111,119.53 C316.090338,121.072674 317.463991,121.844 319.232,121.844 C320.878675,121.844 322.117996,121.116007 322.95,119.66 C323.868671,118.047992 324.328,115.89868 324.328,113.212 L324.328,113.212 Z M347.95,116.202 C347.95,116.167333 347.932667,116.401331 347.898,116.904 C347.828666,117.909338 347.794,118.879995 347.794,119.816 C347.794,119.920001 347.811333,120.132332 347.846,120.453 C347.880667,120.773668 347.898,121.159331 347.898,121.61 L347.898,121.844 C347.898,122.069334 347.828667,122.182 347.69,122.182 C347.551332,122.182 347.43,122.052001 347.326,121.792 C347.083332,121.219997 346.840668,120.847334 346.598,120.674 C345.349993,121.766005 343.850675,122.312 342.1,122.312 C339.551987,122.312 337.441675,121.423676 335.769,119.647 C334.096325,117.870324 333.26,115.630014 333.26,112.926 C333.26,110.204653 334.026992,107.981675 335.561,106.257 C337.095007,104.532325 339.075321,103.67 341.502,103.67 C342.386004,103.67 343.09233,103.743666 343.621,103.891 C344.149669,104.038334 344.803996,104.337331 345.584,104.788 C345.965335,105.013334 346.251332,105.126 346.442,105.126 C346.598,105.126 346.745332,104.987335 346.884,104.71 C347.109334,104.224664 347.291332,103.982 347.43,103.982 C347.568667,103.982 347.638,104.051333 347.638,104.19 C347.638,104.259334 347.620667,104.371999 347.586,104.528 C347.395332,105.360004 347.3,106.919989 347.3,109.208 C347.3,109.537335 347.274,109.728 347.222,109.78 C347.169999,109.832 347.100667,109.858 347.014,109.858 C346.840666,109.858 346.728,109.693335 346.676,109.364 C346.450665,107.977326 346.130002,106.946003 345.714,106.27 C344.864662,104.883326 343.530009,104.19 341.71,104.19 C340.305993,104.19 339.19667,104.657995 338.382,105.594 C336.908659,107.275342 336.172,109.73665 336.172,112.978 C336.172,115.872681 336.77866,118.117325 337.992,119.712 C339.049338,121.098674 340.453324,121.792 342.204,121.792 C343.105338,121.792 343.928663,121.571002 344.674,121.129 C345.419337,120.686998 345.991331,120.08467 346.39,119.322 C346.840669,118.437996 347.161332,117.476005 347.352,116.436 C347.421333,116.019998 347.533999,115.812 347.69,115.812 C347.863334,115.812 347.95,115.941999 347.95,116.202 L347.95,116.202 Z M360.418,121.792 C360.418,121.930667 360.314001,122 360.106,122 L359.846,122 C359.741999,121.948 358.563344,121.922 356.31,121.922 C355.876664,121.922 355.443335,121.939333 355.01,121.974 C354.784665,121.991333 354.438002,122 353.97,122 C353.744665,122 353.632,121.922001 353.632,121.766 C353.632,121.627333 353.857331,121.549333 354.308,121.532 C355.001336,121.514667 355.408666,121.432334 355.53,121.285 C355.651334,121.137666 355.712,120.639338 355.712,119.79 L355.712,106.114 C355.712,105.264662 355.668667,104.788001 355.582,104.684 C355.477999,104.510666 355.001337,104.406667 354.152,104.372 C353.822665,104.354667 353.658,104.285334 353.658,104.164 C353.658,104.007999 353.761999,103.93 353.97,103.93 L357.48,103.982 C357.740001,103.982 358.242663,103.973333 358.988,103.956 L359.976,103.93 C360.253334,103.93 360.392,104.007999 360.392,104.164 C360.392,104.302667 360.01067,104.389333 359.248,104.424 C358.814664,104.441333 358.550333,104.519333 358.455,104.658 C358.359666,104.796667 358.312,105.160664 358.312,105.75 L358.312,119.634 C358.312,120.622005 358.355333,121.159333 358.442,121.246 C358.632667,121.436668 359.195995,121.549333 360.132,121.584 C360.322667,121.584 360.418,121.653333 360.418,121.792 L360.418,121.792 Z M381.726,121.818 C381.726,121.974001 381.596001,122.052 381.336,122.052 C381.162665,122.052 381.006667,122.043333 380.868,122.026 L377.566,121.974 L374.264,122.026 C374.142666,122.043333 374.012667,122.052 373.874,122.052 C373.527331,122.052 373.354,121.965334 373.354,121.792 C373.354,121.601332 373.587997,121.506 374.056,121.506 C375.581341,121.488667 376.344,121.332668 376.344,121.038 C376.344,121.020667 376.326666,120.951334 376.292,120.83 L376.084,120.128 L375.954,119.764 C375.797999,119.226664 375.416669,118.039343 374.81,116.202 L369.246,116.202 C368.205994,118.975347 367.686,120.569998 367.686,120.986 C367.686,121.228668 367.789999,121.376 367.998,121.428 C368.05,121.445333 368.483329,121.48 369.298,121.532 C369.800669,121.549333 370.052,121.635999 370.052,121.792 C370.052,121.965334 369.826669,122.052 369.376,122.052 C368.578662,122.052 367.651338,122.017334 366.594,121.948 C366.333998,121.930667 366.065334,121.922 365.788,121.922 C365.510665,121.922 365.242001,121.939333 364.982,121.974 C364.843332,121.991333 364.730667,122 364.644,122 C364.401332,122 364.28,121.922001 364.28,121.766 C364.28,121.609999 364.552997,121.523333 365.099,121.506 C365.645002,121.488667 366.039332,121.406334 366.282,121.259 C366.524667,121.111666 366.715332,120.830002 366.854,120.414 C369.090011,114.035301 370.909993,108.913353 372.314,105.048 C372.348666,104.839999 372.417999,104.606001 372.522,104.346 L372.652,103.878 C372.704,103.687332 372.773332,103.592 372.86,103.592 C372.912,103.592 372.955333,103.643999 372.99,103.748 C373.215334,104.424003 373.726662,105.836656 374.524,107.986 C375.148003,109.667342 376.699321,113.887966 379.178,120.648 C379.316667,121.029335 379.494332,121.271999 379.711,121.376 C379.927667,121.480001 380.373996,121.540667 381.05,121.558 C381.500669,121.575333 381.726,121.661999 381.726,121.818 L381.726,121.818 Z M374.654,115.604 C374.376665,114.823996 373.917336,113.532676 373.276,111.73 L372.028,108.168 C371.299996,110.074676 370.424671,112.553318 369.402,115.604 L374.654,115.604 Z M399.212,108.558 C399.212,108.783334 399.108001,108.896 398.9,108.896 C398.691999,108.896 398.544667,108.670669 398.458,108.22 C398.423333,107.907998 398.388666,107.596002 398.354,107.284 C398.232666,106.659997 398.033334,106.131336 397.756,105.698 C397.391998,105.125997 396.794004,104.762001 395.962,104.606 C395.424664,104.501999 394.991335,104.458667 394.662,104.476 C393.847329,104.510667 393.353334,104.536667 393.18,104.554 L393.18,120.232 C393.18,120.856003 393.344665,121.245999 393.674,121.402 C393.847334,121.488667 394.332662,121.540667 395.13,121.558 C395.338001,121.575333 395.442,121.653333 395.442,121.792 C395.442,121.948001 395.303334,122.026 395.026,122.026 C394.887332,122.026 394.766,122.017333 394.662,122 C393.621994,121.965333 392.885335,121.948 392.452,121.948 C391.879997,121.948 391.342669,121.956667 390.84,121.974 C390.33733,121.991333 389.696003,122 388.916,122 C388.517331,122 388.318,121.930667 388.318,121.792 C388.318,121.635999 388.690662,121.549333 389.436,121.532 C389.973336,121.532 390.319999,121.419334 390.476,121.194 C390.562667,121.055333 390.606,120.700003 390.606,120.128 L390.606,104.554 C388.889991,104.571333 387.824002,104.657999 387.408,104.814 C386.315994,105.212669 385.674667,106.278658 385.484,108.012 C385.431999,108.532003 385.310667,108.792 385.12,108.792 C384.911999,108.792 384.808,108.610002 384.808,108.246 C384.808,108.055332 384.816666,107.864668 384.834,107.674 L384.886,107.076 C384.938,106.278663 385.015999,105.230007 385.12,103.93 L386.29,103.93 L391.594,104.008 C392.218003,104.025333 393.18866,104.016667 394.506,103.982 L398.822,103.904 C398.856666,104.874672 398.969332,106.313324 399.16,108.22 C399.16,108.272 399.168666,108.337 399.186,108.415 C399.203333,108.493 399.212,108.540667 399.212,108.558 L399.212,108.558 Z M410.899999,121.792 C410.899999,121.930667 410.796001,122 410.587999,122 L410.327999,122 C410.223999,121.948 409.045344,121.922 406.791999,121.922 C406.358664,121.922 405.925335,121.939333 405.491999,121.974 C405.266665,121.991333 404.920002,122 404.451999,122 C404.226665,122 404.113999,121.922001 404.113999,121.766 C404.113999,121.627333 404.339331,121.549333 404.789999,121.532 C405.483336,121.514667 405.890666,121.432334 406.011999,121.285 C406.133333,121.137666 406.193999,120.639338 406.193999,119.79 L406.193999,106.114 C406.193999,105.264662 406.150667,104.788001 406.063999,104.684 C405.959999,104.510666 405.483337,104.406667 404.633999,104.372 C404.304665,104.354667 404.139999,104.285334 404.139999,104.164 C404.139999,104.007999 404.243998,103.93 404.451999,103.93 L407.961999,103.982 C408.222001,103.982 408.724662,103.973333 409.469999,103.956 L410.457999,103.93 C410.735334,103.93 410.873999,104.007999 410.873999,104.164 C410.873999,104.302667 410.49267,104.389333 409.729999,104.424 C409.296664,104.441333 409.032333,104.519333 408.936999,104.658 C408.841666,104.796667 408.793999,105.160664 408.793999,105.75 L408.793999,119.634 C408.793999,120.622005 408.837332,121.159333 408.923999,121.246 C409.114667,121.436668 409.677995,121.549333 410.613999,121.584 C410.804667,121.584 410.899999,121.653333 410.899999,121.792 L410.899999,121.792 Z M433.013999,113.082 C433.013999,115.66468 432.238341,117.848658 430.686999,119.634 C429.135658,121.419342 427.233344,122.312 424.979999,122.312 C422.587987,122.312 420.577341,121.406342 418.947999,119.595 C417.318658,117.783658 416.503999,115.552013 416.503999,112.9 C416.503999,110.195986 417.288325,107.981675 418.856999,106.257 C420.425674,104.532325 422.431987,103.67 424.875999,103.67 C427.181344,103.67 429.113992,104.571324 430.673999,106.374 C432.234007,108.176676 433.013999,110.412653 433.013999,113.082 L433.013999,113.082 Z M430.101999,113.212 C430.101999,110.039984 429.452006,107.570009 428.151999,105.802 C427.337329,104.692661 426.202007,104.138 424.745999,104.138 C423.359326,104.138 422.28467,104.562662 421.521999,105.412 C420.117992,106.972008 419.415999,109.511316 419.415999,113.03 C419.415999,115.820681 419.905661,117.987326 420.884999,119.53 C421.864338,121.072674 423.237991,121.844 425.005999,121.844 C426.652674,121.844 427.891995,121.116007 428.723999,119.66 C429.642671,118.047992 430.101999,115.89868 430.101999,113.212 L430.101999,113.212 Z M454.607999,104.19 C454.607999,104.363334 454.391335,104.441333 453.957999,104.424 L453.385999,104.398 L452.917999,104.398 C452.640665,104.398 452.476,104.445666 452.423999,104.541 C452.371999,104.636334 452.345999,104.926664 452.345999,105.412 L452.345999,120.388 C452.345999,121.306671 452.337333,121.843999 452.319999,122 C452.302666,122.156001 452.250666,122.234 452.163999,122.234 C452.059999,122.234 451.938667,122.138668 451.799999,121.948 L448.471999,117.086 C446.54799,114.260653 444.208013,110.733354 441.451999,106.504 L441.477999,121.012 C441.495333,121.237334 441.625331,121.380333 441.867999,121.441 C442.110667,121.501667 442.691328,121.540667 443.609999,121.558 C443.835334,121.558 443.947999,121.627333 443.947999,121.766 C443.947999,121.939334 443.722668,122.026 443.271999,122.026 C443.115999,122.026 442.622004,122 441.789999,121.948 C441.512665,121.930667 441.244001,121.922 440.983999,121.922 C441.001333,121.922 440.849668,121.939333 440.528999,121.974 C440.208331,122.008667 439.718669,122.026 439.059999,122.026 L438.799999,122.026 C438.401331,122.026 438.201999,121.948001 438.201999,121.792 C438.201999,121.635999 438.375331,121.558 438.721999,121.558 C439.744671,121.540667 440.338332,121.475667 440.502999,121.363 C440.667667,121.250333 440.749999,120.882003 440.749999,120.258 L440.749999,107.44 C440.749999,106.001326 440.455336,105.100002 439.865999,104.736 C439.588665,104.562666 439.09467,104.476 438.383999,104.476 C437.93333,104.476 437.707999,104.389334 437.707999,104.216 C437.707999,104.059999 437.837998,103.982 438.097999,103.982 C438.444668,103.982 438.886663,103.990667 439.423999,104.008 C439.961335,104.025333 440.247333,104.034 440.281999,104.034 C440.334,104.034 440.576664,104.025333 441.009999,104.008 C441.582002,104.008 442.136663,103.999333 442.673999,103.982 L451.643999,117.32 L451.643999,105.75 C451.643999,105.212664 451.635333,104.887667 451.617999,104.775 C451.600666,104.662333 451.531333,104.575667 451.409999,104.515 C451.288665,104.454333 450.87267,104.424 450.161999,104.424 C449.537996,104.424 449.225999,104.346001 449.225999,104.19 C449.225999,104.016666 449.433997,103.93 449.849999,103.93 L450.759999,103.93 L451.487999,103.93 C451.765334,103.947333 451.929999,103.956 451.981999,103.956 C451.999333,103.956 452.155331,103.947333 452.449999,103.93 L453.229999,103.93 L454.035999,103.93 C454.417335,103.93 454.607999,104.016666 454.607999,104.19 L454.607999,104.19 Z" id="CONDOMINIUM-ASSOCIAT" fill="#000000" sketch:type="MSShapeGroup"></path>
                <path d="M274.216,35.984 C274.216,40.6400233 272.22402,44.263987 268.24,46.856 C265.743987,48.4880082 262.576019,49.304 258.736,49.304 C257.103992,49.304 255.25601,49.1360017 253.192,48.8 L253.192,69.248 C253.192,70.3520055 253.239999,71.0479986 253.336,71.336 C253.576001,72.0080034 254.103996,72.4159993 254.92,72.56 C256.312007,72.752001 257.655993,72.848 258.952,72.848 C259.480003,72.848 259.744,73.0159983 259.744,73.352 C259.744,73.8320024 259.408003,74.072 258.736,74.072 C258.447998,74.072 258.208001,74.0480002 258.016,74 C255.375987,74.0480002 250.408036,74.072 243.112,74.072 L242.176,74.072 C240.735993,74.072 240.016,73.8320024 240.016,73.352 C240.016,73.0159983 240.519995,72.848 241.528,72.848 C243.784011,72.848 245.079998,72.6320022 245.416,72.2 C245.800002,72.007999 246.016,71.5280038 246.064,70.76 L246.064,28.28 C246.064,26.7919926 245.656004,25.8800017 244.84,25.544 C244.359998,25.351999 243.520006,25.256 242.32,25.256 L241.6,25.256 C241.455999,25.3040002 241.288001,25.328 241.096,25.328 C240.375996,25.328 240.016,25.1120022 240.016,24.68 C240.016,24.1999976 240.687993,23.96 242.032,23.96 L257.872,23.96 C263.344027,23.96 267.351987,24.9199904 269.896,26.84 C272.776014,29.0000108 274.216,32.0479803 274.216,35.984 L274.216,35.984 Z M266.656,36.128 C266.656,28.927964 263.63203,25.328 257.584,25.328 C255.56799,25.328 254.248003,25.6639966 253.624,26.336 C253.335998,26.6240014 253.192,27.367994 253.192,28.568 L253.192,47.72 C253.576002,47.7680002 254.007998,47.792 254.488,47.792 C257.656016,47.792 260.343989,47.096007 262.552,45.704 C265.288014,43.9759914 266.656,40.7840233 266.656,36.128 L266.656,36.128 Z M317.312,62.336 C317.312,62.528001 317.264,63.7039892 317.168,65.864 C317.071999,68.0240108 317.024,70.0879902 317.024,72.056 L317.024,74.432 C312.319976,74.1919988 303.00807,74.072 289.088,74.072 C287.407992,74.072 285.752008,74.0959998 284.12,74.144 L280.808,74.144 L280.088,74.144 C279.175995,74.144 278.72,73.9280022 278.72,73.496 C278.72,73.2079986 278.863999,73.0400002 279.152,72.992 C279.296001,72.992 280.207992,72.9200007 281.888,72.776 C283.136006,72.6799995 283.891999,72.4160022 284.156,71.984 C284.420001,71.5519978 284.552,70.4240091 284.552,68.6 L284.552,28.136 C284.552,26.743993 284.348002,25.9160013 283.94,25.652 C283.531998,25.3879987 282.224011,25.256 280.016,25.256 C279.247996,25.256 278.864,25.0400022 278.864,24.608 C278.864,24.1759978 279.391995,23.96 280.448,23.96 L292.76,24.032 C293.192002,24.032 295.903975,24.0080002 300.896,23.96 L310.976,23.96 C312.416007,23.96 313.735994,23.864001 314.936,23.672 C315.032,25.7360103 315.247998,28.5919818 315.584,32.24 L315.872,35.336 C315.92,35.5760012 315.944,35.8879981 315.944,36.272 C315.944,36.7520024 315.728002,36.992 315.296,36.992 C314.767997,36.992 314.384001,36.392006 314.144,35.192 C313.231995,30.8719784 311.74401,28.1360058 309.68,26.984 C308.143992,26.1199957 304.112033,25.688 297.584,25.688 L291.68,25.688 L291.68,46.784 L293.408,46.784 C298.784027,46.784 302.059994,46.3760041 303.236,45.56 C304.412006,44.7439959 305.215998,42.3680197 305.648,38.432 C305.744,37.423995 306.007998,36.92 306.44,36.92 C306.968003,36.92 307.232,37.3519957 307.232,38.216 C307.232,39.0800043 307.184,40.3519916 307.088,42.032 C306.991999,43.7120084 306.944,44.9839957 306.944,45.848 C306.944,50.9840257 307.039999,54.5119904 307.232,56.432 C307.28,56.9120024 307.304,57.3199983 307.304,57.656 C307.304,58.2800031 307.040003,58.592 306.512,58.592 C306.175998,58.592 305.948001,58.388002 305.828,57.98 C305.707999,57.571998 305.504001,56.2400113 305.216,53.984 C304.831998,51.1519858 303.65601,49.4000034 301.688,48.728 C300.823996,48.4399986 298.568018,48.296 294.92,48.296 L291.68,48.296 L291.68,72.488 C302.240053,72.488 308.431991,72.2720022 310.256,71.84 C313.424016,71.1199964 315.223998,68.0480271 315.656,62.624 C315.752,61.423994 316.063997,60.824 316.592,60.824 C317.072002,60.824 317.312,61.327995 317.312,62.336 L317.312,62.336 Z M367.536,73.496 C367.536,73.9280022 367.176004,74.144 366.456,74.144 C365.975998,74.144 365.544002,74.1200002 365.16,74.072 L356.016,73.928 L346.872,74.072 C346.535998,74.1200002 346.176002,74.144 345.792,74.144 C344.831995,74.144 344.352,73.9040024 344.352,73.424 C344.352,72.8959974 344.999994,72.632 346.296,72.632 C350.520021,72.5839998 352.632,72.1520041 352.632,71.336 C352.632,71.2879998 352.584,71.0960017 352.488,70.76 L351.912,68.816 L351.552,67.808 C351.119998,66.3199926 350.064008,63.0320254 348.384,57.944 L332.976,57.944 C330.095986,65.6240384 328.656,70.0399942 328.656,71.192 C328.656,71.8640034 328.943997,72.2719993 329.52,72.416 C329.664001,72.4640002 330.863989,72.5599993 333.12,72.704 C334.512007,72.7520002 335.208,72.9919978 335.208,73.424 C335.208,73.9040024 334.584006,74.144 333.336,74.144 C331.127989,74.144 328.560015,74.048001 325.632,73.856 C324.911996,73.8079998 324.168004,73.784 323.4,73.784 C322.631996,73.784 321.888004,73.8319995 321.168,73.928 C320.783998,73.9760002 320.472001,74 320.232,74 C319.559997,74 319.224,73.7840022 319.224,73.352 C319.224,72.9199978 319.979992,72.6800002 321.492,72.632 C323.004008,72.5839998 324.095997,72.356002 324.768,71.948 C325.440003,71.539998 325.967998,70.7600058 326.352,69.608 C332.544031,51.9439117 337.583981,37.7600535 341.472,27.056 C341.568,26.4799971 341.759999,25.8320036 342.048,25.112 L342.408,23.816 C342.552001,23.2879974 342.743999,23.024 342.984,23.024 C343.128001,23.024 343.248,23.1679986 343.344,23.456 C343.968003,25.3280094 345.383989,29.2399702 347.592,35.192 C349.320009,39.8480233 353.615966,51.5359064 360.48,70.256 C360.864002,71.3120053 361.355997,71.9839986 361.956,72.272 C362.556003,72.5600014 363.791991,72.7279998 365.664,72.776 C366.912006,72.8240002 367.536,73.0639978 367.536,73.496 L367.536,73.496 Z M347.952,56.288 C347.183996,54.1279892 345.912009,50.552025 344.136,45.56 L340.68,35.696 C338.66399,40.9760264 336.240014,47.8399578 333.408,56.288 L347.952,56.288 Z M409.264,71.84 C409.264,73.8560101 407.584017,74.864 404.224,74.864 C400.479981,74.864 397.552011,73.3040156 395.44,70.184 C394.527995,68.8399933 393.940001,67.5440062 393.676,66.296 C393.411999,65.0479938 393.016003,61.8800254 392.488,56.792 C392.199999,53.7199846 391.216008,51.5480064 389.536,50.276 C387.855992,49.0039936 385.120019,48.3200005 381.328,48.224 L381.328,70.904 C381.328,71.8640048 382.095992,72.4639988 383.632,72.704 C384.064002,72.7520002 385.167991,72.7999998 386.944,72.848 C387.568003,72.848 387.88,73.0399981 387.88,73.424 C387.88,73.8560022 387.472004,74.072 386.656,74.072 L385.792,74.072 C385.359998,74.0239998 383.272019,74 379.528,74 C378.807996,74 377.584009,74.0239998 375.856,74.072 L372.544,74.072 L369.736,74.072 C368.679995,74.072 368.152,73.8560022 368.152,73.424 C368.152,73.0879983 368.847993,72.8960002 370.24,72.848 C372.496011,72.7999998 373.719999,72.5120026 373.912,71.984 C374.104001,71.7439988 374.2,70.8080082 374.2,69.176 L374.2,29.432 C374.2,27.5119904 373.996002,26.3600019 373.588,25.976 C373.179998,25.5919981 371.94401,25.3760002 369.88,25.328 C368.679994,25.328 368.08,25.1120022 368.08,24.68 C368.08,24.1999976 368.463996,23.96 369.232,23.96 C369.376001,23.96 369.591999,23.9839998 369.88,24.032 L379.456,24.248 C380.416005,24.248 381.759991,24.2240002 383.488,24.176 C385.40801,24.0799995 386.751996,24.032 387.52,24.032 C391.984022,24.032 395.523987,25.02799 398.14,27.02 C400.756013,29.01201 402.064,31.711983 402.064,35.12 C402.064,38.4800168 400.720013,41.2519891 398.032,43.436 C395.343987,45.6200109 391.696023,46.9039981 387.088,47.288 C386.655998,47.3360002 386.416,47.4079995 386.368,47.504 C386.368,47.696001 386.607998,47.792 387.088,47.792 C392.128025,48.6560043 395.595991,50.4199867 397.492,53.084 C399.38801,55.7480133 400.647997,60.5599652 401.272,67.52 C401.656002,71.4560197 402.999989,73.424 405.304,73.424 C406.024004,73.424 406.384,73.2800014 406.384,72.992 C406.384,72.9439998 406.36,72.8960002 406.312,72.848 C406.071999,72.3199974 405.952,71.8880017 405.952,71.552 C405.952,70.543995 406.479995,70.04 407.536,70.04 C408.688006,70.04 409.264,70.639994 409.264,71.84 L409.264,71.84 Z M394.36,35.768 C394.36,28.9039657 391.38403,25.472 385.432,25.472 C383.847992,25.472 382.768003,25.6879978 382.192,26.12 C381.615997,26.5520022 381.328,27.3199945 381.328,28.424 L381.328,46.712 C385.936023,46.7600002 389.25999,45.9200086 391.3,44.192 C393.34001,42.4639914 394.36,39.6560194 394.36,35.768 L394.36,35.768 Z M450.992,68.312 C450.992,69.5600062 450.920001,71.6239856 450.776,74.504 L449.984,74.504 C449.695999,74.504 449.000006,74.4560005 447.896,74.36 C446.791995,74.2639995 445.544007,74.216 444.152,74.216 L414.2,74 C413.383996,74 412.976,73.7840022 412.976,73.352 C412.976,73.0159983 413.623994,72.8000005 414.92,72.704 C416.744009,72.6079995 417.835998,72.4040016 418.196,72.092 C418.556002,71.7799984 418.736,70.8800074 418.736,69.392 L418.736,28.928 C418.736,27.1519911 418.556002,26.1200014 418.196,25.832 C417.835998,25.5439986 416.552011,25.4 414.344,25.4 C413.431996,25.4 412.976,25.1360026 412.976,24.608 C412.976,24.1759978 413.263997,23.96 413.84,23.96 L414.488,23.96 C416.072008,24.1040007 419.215977,24.176 423.92,24.176 C424.352002,24.176 425.191994,24.1400004 426.44,24.068 C427.688006,23.9959996 428.719996,23.96 429.536,23.96 L430.328,23.96 C431.192004,23.96 431.624,24.1999976 431.624,24.68 C431.624,24.9680014 431.492001,25.1479996 431.228,25.22 C430.963999,25.2920004 430.136007,25.3519998 428.744,25.4 C427.351993,25.4480002 426.524001,25.675998 426.26,26.084 C425.995999,26.492002 425.864,27.7519894 425.864,29.864 L425.864,72.344 C427.160007,72.3920002 428.959989,72.416 431.264,72.416 C436.880028,72.416 440.839989,72.1280029 443.144,71.552 C445.448012,70.9759971 447.007996,69.8960079 447.824,68.312 C448.640004,66.7279921 449.119999,64.5920134 449.264,61.904 C449.312,61.2799969 449.599997,60.968 450.128,60.968 C450.752003,60.968 451.04,61.3279964 450.992,62.048 L450.92,63.848 C450.92,63.9440005 450.92,64.1599983 450.92,64.496 C450.968,64.8320017 450.992,65.1679983 450.992,65.504 L450.992,68.312 Z" id="PEARL" fill="#000000" sketch:type="MSShapeGroup"></path>
                <path d="M50.8039999,73.496 C50.8039999,73.8800019 50.2760052,74.072 49.2199999,74.072 L48.3559999,74.072 L45.6199999,74.072 C43.7959908,74.0239998 41.9480093,74 40.0759999,74 C36.7639833,74 34.6520045,74.0239998 33.7399999,74.072 C32.8279953,74.1200002 32.1080025,74.144 31.5799999,74.144 C30.4279941,74.144 29.8519999,73.9280022 29.8519999,73.496 C29.8519999,73.0639978 30.1879965,72.848 30.8599999,72.848 C31.9160052,72.848 33.0439939,72.8240002 34.2439999,72.776 C35.7320073,72.7279998 36.5359993,72.3560035 36.6559999,71.66 C36.7760005,70.9639965 36.8359999,69.4640115 36.8359999,67.16 L36.8359999,33.32 C36.8359999,31.7839923 36.7880004,30.8720014 36.6919999,30.584 C36.5959994,30.2959986 36.2600028,30.152 35.6839999,30.152 C35.4439987,30.152 33.8840143,30.2719988 31.0039999,30.512 C30.427997,30.5600002 30.0440009,30.584 29.8519999,30.584 C29.275997,30.584 28.9879999,30.4160017 28.9879999,30.08 C28.9879999,29.6959981 29.275997,29.4800002 29.8519999,29.432 C32.1080112,29.1919988 34.3879884,28.5080056 36.6919999,27.38 C38.9960114,26.2519944 40.8439929,24.9200077 42.2359999,23.384 C42.7640025,22.9519978 43.1239989,22.736 43.3159999,22.736 C43.7000018,22.736 43.8919999,22.9759976 43.8919999,23.456 L43.8919999,24.824 C43.8439997,25.2080019 43.8199999,25.6399976 43.8199999,26.12 L43.8199999,69.176 C43.8199999,70.9040086 43.9039991,71.9119986 44.0719999,72.2 C44.2400007,72.4880014 44.8279949,72.6559998 45.8359999,72.704 L47.4919999,72.776 L48.7159999,72.848 L49.7959999,72.848 C50.4680033,72.848 50.8039999,73.0639978 50.8039999,73.496 L50.8039999,73.496 Z M95.988,57.944 C95.988,62.6000233 94.5720141,66.5839834 91.74,69.896 C88.9079858,73.2080166 85.5240196,74.864 81.588,74.864 C76.6439752,74.864 72.6360153,72.8240204 69.564,68.744 C66.4919846,64.6639796 64.956,59.3600326 64.956,52.832 C64.956,46.83197 66.2639869,41.3600247 68.88,36.416 C71.496013,31.4719753 74.9879781,27.8720113 79.356,25.616 C83.0040182,23.7439906 86.9879784,22.808 91.308,22.808 C92.316005,22.808 92.82,22.9999981 92.82,23.384 C92.82,23.7200017 92.4840033,23.9119998 91.812,23.96 C87.4919784,24.3440019 83.6760165,25.9039863 80.364,28.64 C76.0439784,32.1920178 73.5000038,38.2399573 72.732,46.784 C75.3720132,44.2879875 78.3479834,43.04 81.66,43.04 C84.3480134,43.04 86.8679882,43.7599928 89.22,45.2 C93.7320225,47.9360137 95.988,52.1839712 95.988,57.944 L95.988,57.944 Z M88.572,58.16 C88.572,49.2319554 85.8120276,44.768 80.292,44.768 C77.7959875,44.768 75.8760067,45.8359893 74.532,47.972 C73.1879932,50.1080107 72.516,53.0959808 72.516,56.936 C72.516,62.4560276 73.4999901,66.919983 75.468,70.328 C76.7160062,72.4880108 78.539988,73.568 80.94,73.568 C86.0280254,73.568 88.572,68.4320514 88.572,58.16 L88.572,58.16 Z M135.34,57.8 C135.34,63.9440307 132.988024,68.6479837 128.284,71.912 C125.451986,73.8800098 121.780023,74.864 117.268,74.864 C112.755977,74.864 109.444011,73.6880118 107.332,71.336 C106.179994,70.0399935 105.604,68.5040089 105.604,66.728 C105.604,65.2399926 106.083995,64.0280047 107.044,63.092 C108.004005,62.1559953 109.251992,61.688 110.788,61.688 C112.036006,61.688 113.079996,62.0479964 113.92,62.768 C114.760004,63.4880036 115.18,64.3759947 115.18,65.432 C115.18,67.2080089 114.004012,68.5519954 111.652,69.464 C110.595995,69.8480019 110.068,70.2799976 110.068,70.76 C110.068,71.5280038 110.775993,72.211997 112.192,72.812 C113.608007,73.412003 115.179991,73.712 116.908,73.712 C120.268017,73.712 122.787992,72.5600115 124.468,70.256 C126.772012,67.0879842 127.924,62.8160269 127.924,57.44 C127.924,53.5039803 127.012009,50.4560108 125.188,48.296 C123.363991,46.1359892 120.772017,45.056 117.412,45.056 C114.819987,45.056 111.964016,46.0399902 108.844,48.008 C109.132001,37.207946 109.347999,30.3920142 109.492,27.56 C109.54,25.9279918 109.899997,24.9320018 110.572,24.572 C111.244003,24.2119982 113.067985,24.032 116.044,24.032 L118.492,24.032 C119.644006,24.0800002 120.555997,24.104 121.228,24.104 L123.676,24.104 C126.988017,24.104 128.919997,24.0440006 129.472,23.924 C130.024003,23.8039994 130.371999,23.4080034 130.516,22.736 C130.708001,21.6319945 131.043998,21.08 131.524,21.08 C132.004002,21.08 132.244,21.3439974 132.244,21.872 C132.244,22.2080017 132.22,22.471999 132.172,22.664 L132.028,24.32 C131.787999,27.0080134 131.296004,28.6759968 130.552,29.324 C129.807996,29.9720032 127.996014,30.296 125.116,30.296 L111.364,30.224 C111.171999,31.8560082 111.004001,36.775959 110.86,44.984 C113.596014,43.7359938 116.451985,43.112 119.428,43.112 C124.372025,43.112 128.259986,44.4199869 131.092,47.036 C133.924014,49.6520131 135.34,53.2399772 135.34,57.8 L135.34,57.8 Z M177.932,49.88 C177.932,54.1520214 177.296006,58.183981 176.024,61.976 C174.751994,65.768019 173.012011,68.8159885 170.804,71.12 C168.451988,73.6160125 165.452018,74.864 161.804,74.864 C156.811975,74.864 152.696016,72.4160245 149.456,67.52 C146.215984,62.6239755 144.596,56.3600382 144.596,48.728 C144.596,39.8959558 146.875977,32.9360254 151.436,27.848 C154.172014,24.7759846 157.53198,23.24 161.516,23.24 C166.220024,23.24 169.963986,25.3759786 172.748,29.648 C176.204017,34.9280264 177.932,41.671959 177.932,49.88 L177.932,49.88 Z M170.156,47.288 C170.156,40.1359642 169.364008,34.2320233 167.78,29.576 C166.579994,26.0239822 164.468015,24.248 161.444,24.248 C155.39597,24.248 152.372,32.2879196 152.372,48.368 C152.372,65.2160842 155.563968,73.64 161.948,73.64 C164.924015,73.64 167.059994,71.1920245 168.356,66.296 C169.556006,61.8319777 170.156,55.496041 170.156,47.288 L170.156,47.288 Z" id="1650" fill="#000000" sketch:type="MSShapeGroup"></path>
                <path d="M448.957,67.272 C448.957,69.3840106 448.219007,71.0279941 446.743,72.204 C445.662995,73.0680043 444.217009,73.5 442.405,73.5 C442.357,73.5 442.144002,73.4940001 441.766,73.482 C441.387998,73.4699999 440.839004,73.464 440.119,73.464 L439.219,73.464 L437.797,73.482 C437.713,73.4940001 437.623,73.5 437.527,73.5 C437.298999,73.5 437.185,73.4400006 437.185,73.32 C437.185,73.2119995 437.376998,73.158 437.761,73.158 C438.253002,73.158 438.558999,73.0680009 438.679,72.888 C438.727,72.8039996 438.751,72.5760019 438.751,72.204 L438.751,62.502 C438.751,61.9139971 438.706,61.5720005 438.616,61.476 C438.526,61.3799995 438.217003,61.332 437.689,61.332 C437.412999,61.332 437.275,61.2660007 437.275,61.134 C437.275,61.0379995 437.376999,60.99 437.581,60.99 C437.569,60.99 437.700999,60.9959999 437.977,61.008 C438.253001,61.0200001 438.522999,61.026 438.787,61.026 L440.713,61.026 C442.873011,61.026 444.402996,61.1759985 445.303,61.476 C446.395005,61.8360018 447.276997,62.5469947 447.949,63.609 C448.621003,64.6710053 448.957,65.8919931 448.957,67.272 L448.957,67.272 Z M446.941,67.2 C446.941,65.20799 446.551004,63.7470047 445.771,62.817 C444.990996,61.8869953 443.773008,61.422 442.117,61.422 C441.312996,61.422 440.827001,61.5059992 440.659,61.674 C440.587,61.7580004 440.551,62.0459975 440.551,62.538 L440.551,72.114 C440.551,72.4500017 440.56,72.6539996 440.578,72.726 C440.596,72.7980004 440.647,72.8579998 440.731,72.906 C441.019001,73.0500007 441.624995,73.122 442.549,73.122 C443.845006,73.122 444.888996,72.6660046 445.681,71.754 C446.521004,70.7939952 446.941,69.2760104 446.941,67.2 L446.941,67.2 Z M461.829,70.584 C461.829,70.6320002 461.817,70.9259973 461.793,71.466 C461.769,72.0060027 461.757,72.5219975 461.757,73.014 L461.757,73.608 C460.580994,73.5479997 458.253017,73.518 454.773,73.518 C454.352998,73.518 453.939002,73.5239999 453.531,73.536 L452.703,73.536 L452.523,73.536 C452.294999,73.536 452.181,73.4820005 452.181,73.374 C452.181,73.3019996 452.217,73.2600001 452.289,73.248 C452.325,73.248 452.552998,73.2300002 452.973,73.194 C453.285002,73.1699999 453.474,73.1040005 453.54,72.996 C453.606,72.8879995 453.639,72.6060023 453.639,72.15 L453.639,62.034 C453.639,61.6859983 453.588001,61.4790003 453.486,61.413 C453.383999,61.3469997 453.057003,61.314 452.505,61.314 C452.312999,61.314 452.217,61.2600005 452.217,61.152 C452.217,61.0439995 452.348999,60.99 452.613,60.99 L455.691,61.008 C455.799001,61.008 456.476994,61.0020001 457.725,60.99 L460.245,60.99 C460.605002,60.99 460.934999,60.9660002 461.235,60.918 C461.259,61.4340026 461.313,62.1479954 461.397,63.06 L461.469,63.834 C461.481,63.8940003 461.487,63.9719995 461.487,64.068 C461.487,64.1880006 461.433001,64.248 461.325,64.248 C461.192999,64.248 461.097,64.0980015 461.037,63.798 C460.808999,62.7179946 460.437003,62.0340014 459.921,61.746 C459.536998,61.5299989 458.529008,61.422 456.897,61.422 L455.421,61.422 L455.421,66.696 L455.853,66.696 C457.197007,66.696 458.015999,66.594001 458.31,66.39 C458.604001,66.185999 458.804999,65.5920049 458.913,64.608 C458.937,64.3559987 459.002999,64.23 459.111,64.23 C459.243001,64.23 459.309,64.3379989 459.309,64.554 C459.309,64.7700011 459.297,65.0879979 459.273,65.508 C459.249,65.9280021 459.237,66.2459989 459.237,66.462 C459.237,67.7460064 459.261,68.6279976 459.309,69.108 C459.321,69.2280006 459.327,69.3299996 459.327,69.414 C459.327,69.5700008 459.261001,69.648 459.129,69.648 C459.045,69.648 458.988,69.5970005 458.958,69.495 C458.928,69.3929995 458.877,69.0600028 458.805,68.496 C458.709,67.7879965 458.415002,67.3500008 457.923,67.182 C457.706999,67.1099996 457.143005,67.074 456.231,67.074 L455.421,67.074 L455.421,73.122 C458.061013,73.122 459.608998,73.0680005 460.065,72.96 C460.857004,72.7799991 461.306999,72.0120068 461.415,70.656 C461.439,70.3559985 461.516999,70.206 461.649,70.206 C461.769001,70.206 461.829,70.3319987 461.829,70.584 L461.829,70.584 Z M475.745,61.17 C475.745,61.2900006 475.595002,61.3440001 475.295,61.332 L474.899,61.314 L474.575,61.314 C474.382999,61.314 474.269,61.3469997 474.233,61.413 C474.197,61.4790003 474.179,61.6799983 474.179,62.016 L474.179,72.384 C474.179,73.0200032 474.173,73.3919995 474.161,73.5 C474.149,73.6080005 474.113,73.662 474.053,73.662 C473.981,73.662 473.897,73.5960007 473.801,73.464 L471.497,70.098 C470.164993,68.1419902 468.54501,65.7000146 466.637,62.772 L466.655,72.816 C466.667,72.9720008 466.756999,73.0709998 466.925,73.113 C467.093001,73.1550002 467.494997,73.1819999 468.131,73.194 C468.287001,73.194 468.365,73.2419995 468.365,73.338 C468.365,73.4580006 468.209002,73.518 467.897,73.518 C467.788999,73.518 467.447003,73.5000002 466.871,73.464 C466.678999,73.4519999 466.493001,73.446 466.313,73.446 C466.325,73.446 466.220001,73.4579999 465.998,73.482 C465.775999,73.5060001 465.437002,73.518 464.981,73.518 L464.801,73.518 C464.524999,73.518 464.387,73.4640005 464.387,73.356 C464.387,73.2479995 464.506999,73.194 464.747,73.194 C465.455004,73.1819999 465.865999,73.1370004 465.98,73.059 C466.094001,72.9809996 466.151,72.7260022 466.151,72.294 L466.151,63.42 C466.151,62.423995 465.947002,61.8000013 465.539,61.548 C465.346999,61.4279994 465.005002,61.368 464.513,61.368 C464.200998,61.368 464.045,61.3080006 464.045,61.188 C464.045,61.0799995 464.134999,61.026 464.315,61.026 C464.555001,61.026 464.860998,61.0319999 465.233,61.044 C465.605002,61.0560001 465.803,61.062 465.827,61.062 C465.863,61.062 466.030999,61.0560001 466.331,61.044 C466.727002,61.044 467.110998,61.0380001 467.483,61.026 L473.693,70.26 L473.693,62.25 C473.693,61.8779981 473.687,61.6530004 473.675,61.575 C473.663,61.4969996 473.615,61.4370002 473.531,61.395 C473.447,61.3529998 473.159002,61.332 472.667,61.332 C472.234998,61.332 472.019,61.2780005 472.019,61.17 C472.019,61.0499994 472.162999,60.99 472.451,60.99 L473.081,60.99 L473.585,60.99 C473.777001,61.0020001 473.891,61.008 473.927,61.008 C473.939,61.008 474.046999,61.0020001 474.251,60.99 L474.791,60.99 L475.349,60.99 C475.613001,60.99 475.745,61.0499994 475.745,61.17 L475.745,61.17 Z M489.769,61.134 C489.769,61.2300005 489.655001,61.2839999 489.427,61.296 C488.898997,61.3080001 488.545001,61.3859993 488.365,61.53 C488.184999,61.6740007 487.999001,62.0099974 487.807,62.538 L487.195,64.212 C485.718993,68.2560202 484.681003,71.3579892 484.081,73.518 C484.045,73.6620007 483.985,73.734 483.901,73.734 C483.805,73.734 483.607002,73.2840045 483.307,72.384 C482.766997,70.7399918 482.347001,69.5040041 482.047,68.676 C481.722998,67.7639954 481.243003,66.4020091 480.607,64.59 L479.743,62.16 C479.622999,61.8239983 479.491001,61.5990006 479.347,61.485 C479.202999,61.3709994 478.963002,61.3080001 478.627,61.296 C478.230998,61.2839999 477.994,61.2720001 477.916,61.26 C477.838,61.2479999 477.799,61.2000004 477.799,61.116 C477.799,61.0079995 477.918999,60.954 478.159,60.954 L478.321,60.954 C478.537001,60.954 478.911997,60.9629999 479.446,60.981 C479.980003,60.9990001 480.360999,61.008 480.589,61.008 C480.649,61.008 480.879998,60.9990001 481.282,60.981 C481.684002,60.9629999 482.256996,60.954 483.001,60.954 L483.253,60.954 C483.469001,60.954 483.577,61.0139994 483.577,61.134 C483.577,61.2660007 483.361002,61.3379999 482.929,61.35 L481.831,61.386 C481.578999,61.3980001 481.453,61.4759993 481.453,61.62 C481.453,61.6440001 481.465,61.6919996 481.489,61.764 L481.633,62.232 C481.657,62.3280005 482.238994,64.0199836 483.379,67.308 C483.571001,67.8720028 483.936997,68.9459921 484.477,70.53 C486.45701,64.925972 487.447,61.9800014 487.447,61.692 C487.447,61.4039986 487.153003,61.2719999 486.565,61.296 L486.007,61.314 C485.862999,61.314 485.791,61.2660005 485.791,61.17 C485.791,61.0499994 485.970998,60.99 486.331,60.99 L486.943,60.99 C487.279002,61.0020001 487.524999,61.008 487.681,61.008 L488.257,61.008 L489.445,60.99 C489.661001,60.99 489.769,61.0379995 489.769,61.134 L489.769,61.134 Z M501.507,70.584 C501.507,70.6320002 501.495,70.9259973 501.471,71.466 C501.447,72.0060027 501.435,72.5219975 501.435,73.014 L501.435,73.608 C500.258994,73.5479997 497.931017,73.518 494.451,73.518 C494.030998,73.518 493.617002,73.5239999 493.209,73.536 L492.381,73.536 L492.201,73.536 C491.972999,73.536 491.859,73.4820005 491.859,73.374 C491.859,73.3019996 491.895,73.2600001 491.967,73.248 C492.003,73.248 492.230998,73.2300002 492.651,73.194 C492.963002,73.1699999 493.152,73.1040005 493.218,72.996 C493.284,72.8879995 493.317,72.6060023 493.317,72.15 L493.317,62.034 C493.317,61.6859983 493.266001,61.4790003 493.164,61.413 C493.061999,61.3469997 492.735003,61.314 492.183,61.314 C491.990999,61.314 491.895,61.2600005 491.895,61.152 C491.895,61.0439995 492.026999,60.99 492.291,60.99 L495.369,61.008 C495.477001,61.008 496.154994,61.0020001 497.403,60.99 L499.923,60.99 C500.283002,60.99 500.612999,60.9660002 500.913,60.918 C500.937,61.4340026 500.991,62.1479954 501.075,63.06 L501.147,63.834 C501.159,63.8940003 501.165,63.9719995 501.165,64.068 C501.165,64.1880006 501.111001,64.248 501.003,64.248 C500.870999,64.248 500.775,64.0980015 500.715,63.798 C500.486999,62.7179946 500.115003,62.0340014 499.599,61.746 C499.214998,61.5299989 498.207008,61.422 496.575,61.422 L495.099,61.422 L495.099,66.696 L495.531,66.696 C496.875007,66.696 497.693999,66.594001 497.988,66.39 C498.282001,66.185999 498.482999,65.5920049 498.591,64.608 C498.615,64.3559987 498.680999,64.23 498.789,64.23 C498.921001,64.23 498.987,64.3379989 498.987,64.554 C498.987,64.7700011 498.975,65.0879979 498.951,65.508 C498.927,65.9280021 498.915,66.2459989 498.915,66.462 C498.915,67.7460064 498.939,68.6279976 498.987,69.108 C498.999,69.2280006 499.005,69.3299996 499.005,69.414 C499.005,69.5700008 498.939001,69.648 498.807,69.648 C498.723,69.648 498.666,69.5970005 498.636,69.495 C498.606,69.3929995 498.555,69.0600028 498.483,68.496 C498.387,67.7879965 498.093002,67.3500008 497.601,67.182 C497.384999,67.1099996 496.821005,67.074 495.909,67.074 L495.099,67.074 L495.099,73.122 C497.739013,73.122 499.286998,73.0680005 499.743,72.96 C500.535004,72.7799991 500.984999,72.0120068 501.093,70.656 C501.117,70.3559985 501.194999,70.206 501.327,70.206 C501.447001,70.206 501.507,70.3319987 501.507,70.584 L501.507,70.584 Z M514.559,72.96 C514.559,73.4640025 514.139004,73.716 513.299,73.716 C512.362995,73.716 511.631003,73.3260039 511.103,72.546 C510.874999,72.2099983 510.728,71.8860016 510.662,71.574 C510.596,71.2619984 510.497001,70.4700064 510.365,69.198 C510.293,68.4299962 510.047002,67.8870016 509.627,67.569 C509.206998,67.2509984 508.523005,67.0800001 507.575,67.056 L507.575,72.726 C507.575,72.9660012 507.766998,73.1159997 508.151,73.176 C508.259001,73.1880001 508.534998,73.1999999 508.979,73.212 C509.135001,73.212 509.213,73.2599995 509.213,73.356 C509.213,73.4640005 509.111001,73.518 508.907,73.518 L508.691,73.518 C508.582999,73.5059999 508.061005,73.5 507.125,73.5 C506.944999,73.5 506.639002,73.5059999 506.207,73.518 L505.379,73.518 L504.677,73.518 C504.412999,73.518 504.281,73.4640005 504.281,73.356 C504.281,73.2719996 504.454998,73.2240001 504.803,73.212 C505.367003,73.1999999 505.673,73.1280007 505.721,72.996 C505.769,72.9359997 505.793,72.702002 505.793,72.294 L505.793,62.358 C505.793,61.8779976 505.742001,61.5900005 505.64,61.494 C505.537999,61.3979995 505.229003,61.3440001 504.713,61.332 C504.412998,61.332 504.263,61.2780005 504.263,61.17 C504.263,61.0499994 504.358999,60.99 504.551,60.99 C504.587,60.99 504.641,60.9959999 504.713,61.008 L507.107,61.062 C507.347001,61.062 507.682998,61.0560001 508.115,61.044 C508.595002,61.0199999 508.930999,61.008 509.123,61.008 C510.239006,61.008 511.123997,61.2569975 511.778,61.755 C512.432003,62.2530025 512.759,62.9279957 512.759,63.78 C512.759,64.6200042 512.423003,65.3129973 511.751,65.859 C511.078997,66.4050027 510.167006,66.7259995 509.015,66.822 C508.906999,66.8340001 508.847,66.8519999 508.835,66.876 C508.835,66.9240002 508.894999,66.948 509.015,66.948 C510.275006,67.1640011 511.141998,67.6049967 511.616,68.271 C512.090002,68.9370033 512.404999,70.1399913 512.561,71.88 C512.657,72.8640049 512.992997,73.356 513.569,73.356 C513.749001,73.356 513.839,73.3200004 513.839,73.248 C513.839,73.2359999 513.833,73.2240001 513.821,73.212 C513.761,73.0799993 513.731,72.9720004 513.731,72.888 C513.731,72.6359987 513.862999,72.51 514.127,72.51 C514.415001,72.51 514.559,72.6599985 514.559,72.96 L514.559,72.96 Z M510.833,63.942 C510.833,62.2259914 510.089007,61.368 508.601,61.368 C508.204998,61.368 507.935001,61.4219995 507.791,61.53 C507.646999,61.6380005 507.575,61.8299986 507.575,62.106 L507.575,66.678 C508.727006,66.6900001 509.557997,66.4800022 510.068,66.048 C510.578003,65.6159978 510.833,64.9140049 510.833,63.942 L510.833,63.942 Z M520.339,73.392 C520.339,74.2680044 520.003003,74.903998 519.331,75.3 C518.850998,75.5880014 518.455002,75.732 518.143,75.732 C518.047,75.732 517.999,75.6960004 517.999,75.624 C517.999,75.5519996 518.058999,75.5040001 518.179,75.48 C519.187005,75.2399988 519.691,74.724004 519.691,73.932 C519.691,73.4399975 519.559001,73.1100008 519.295,72.942 C519.295,73.3860022 519.073002,73.608 518.629,73.608 C518.400999,73.608 518.206001,73.5270008 518.044,73.365 C517.881999,73.2029992 517.801,73.0020012 517.801,72.762 C517.801,72.4499984 517.902999,72.195001 518.107,71.997 C518.311001,71.798999 518.568998,71.7 518.881,71.7 C519.313002,71.7 519.663999,71.8589984 519.934,72.177 C520.204001,72.4950016 520.339,72.8999975 520.339,73.392 L520.339,73.392 Z M539.405,69.486 C539.405,69.4619999 539.393,69.6239983 539.369,69.972 C539.321,70.6680035 539.297,71.3399968 539.297,71.988 C539.297,72.0600004 539.309,72.2069989 539.333,72.429 C539.357,72.6510011 539.369,72.9179984 539.369,73.23 L539.369,73.392 C539.369,73.5480008 539.321,73.626 539.225,73.626 C539.129,73.626 539.045,73.5360009 538.973,73.356 C538.804999,72.959998 538.637001,72.7020006 538.469,72.582 C537.604996,73.3380038 536.567006,73.716 535.355,73.716 C533.590991,73.716 532.130006,73.1010062 530.972,71.871 C529.813994,70.6409939 529.235,69.0900094 529.235,67.218 C529.235,65.3339906 529.765995,63.795006 530.828,62.601 C531.890005,61.406994 533.260992,60.81 534.941,60.81 C535.553003,60.81 536.041998,60.8609995 536.408,60.963 C536.774002,61.0650005 537.226997,61.2719984 537.767,61.584 C538.031001,61.7400008 538.228999,61.818 538.361,61.818 C538.469001,61.818 538.571,61.722001 538.667,61.53 C538.823001,61.1939983 538.949,61.026 539.045,61.026 C539.141,61.026 539.189,61.0739995 539.189,61.17 C539.189,61.2180002 539.177,61.2959995 539.153,61.404 C539.020999,61.9800029 538.955,63.0599921 538.955,64.644 C538.955,64.8720011 538.937,65.0039998 538.901,65.04 C538.865,65.0760002 538.817,65.094 538.757,65.094 C538.636999,65.094 538.559,64.9800011 538.523,64.752 C538.366999,63.7919952 538.145001,63.0780023 537.857,62.61 C537.268997,61.6499952 536.345006,61.17 535.085,61.17 C534.112995,61.17 533.345003,61.4939968 532.781,62.142 C531.760995,63.3060058 531.251,65.0099888 531.251,67.254 C531.251,69.25801 531.670996,70.8119945 532.511,71.916 C533.243004,72.8760048 534.214994,73.356 535.427,73.356 C536.051003,73.356 536.620997,73.2030015 537.137,72.897 C537.653003,72.5909985 538.048999,72.1740026 538.325,71.646 C538.637002,71.0339969 538.858999,70.3680036 538.991,69.648 C539.039,69.3599986 539.116999,69.216 539.225,69.216 C539.345001,69.216 539.405,69.3059991 539.405,69.486 L539.405,69.486 Z M554.419,67.326 C554.419,69.1140089 553.882005,70.6259938 552.808,71.862 C551.733995,73.0980062 550.417008,73.716 548.857,73.716 C547.200992,73.716 545.809006,73.0890063 544.681,71.835 C543.552994,70.5809937 542.989,69.0360092 542.989,67.2 C542.989,65.3279906 543.531995,63.795006 544.618,62.601 C545.704005,61.406994 547.092992,60.81 548.785,60.81 C550.381008,60.81 551.718995,61.4339938 552.799,62.682 C553.879005,63.9300062 554.419,65.4779908 554.419,67.326 L554.419,67.326 Z M552.403,67.416 C552.403,65.219989 551.953005,63.5100061 551.053,62.286 C550.488997,61.5179962 549.703005,61.134 548.695,61.134 C547.734995,61.134 546.991003,61.4279971 546.463,62.016 C545.490995,63.0960054 545.005,64.8539878 545.005,67.29 C545.005,69.2220097 545.343997,70.7219947 546.022,71.79 C546.700003,72.8580053 547.650994,73.392 548.875,73.392 C550.015006,73.392 550.872997,72.888005 551.449,71.88 C552.085003,70.7639944 552.403,69.2760093 552.403,67.416 L552.403,67.416 Z" id="DENVER,-CO" fill="#000000" sketch:type="MSShapeGroup" transform="translate(496.180000, 68.271000) rotate(-90.000000) translate(-496.180000, -68.271000) "></path>
            </g>
        </g>
    </g>
</svg>